# Made using Asset Forge (www.assetforge.io) version 1.3 

mtllib BoneCharm.mtl 

v 1.25 0.025 0.5
v -0.25 0.025 0.5
v 1.25 0.175 0.5
v -0.25 0.175 0.5
v 1.5 0.175 -0.375
v 1.5 0.025 -0.375
v 1.5 0.175 0.375
v 1.5 0.025 0.375
v 1.25 0.2 -0.375
v 1.25 0.2 0.375
v -0.25 0.2 -0.375
v -0.25 0.2 0.375
v -0.25 0.025 -0.5
v 1.25 0.025 -0.5
v -0.25 0.175 -0.5
v 1.25 0.175 -0.5
v 1.25 1.804779E-17 0.375
v 1.25 1.804779E-17 -0.375
v -0.25 1.804779E-17 0.375
v -0.25 1.804779E-17 -0.375
v -0.5 0.025 -0.375
v -0.5 0.175 -0.375
v -0.5 0.025 0.375
v -0.5 0.175 0.375
vn 0 0 1
vn 2 0 0
vn 0 0.2 0
vn 0 0 -1
vn 0 -0.2 0
vn -2 0 0
vn 1.154701 0.11547 -0.5773503
vn 1.414214 0 -0.7071068
vn 0 -0.1414214 -0.7071068
vn 1.154701 -0.1154701 -0.5773503
vn 1.414214 -0.1414214 0
vn 1.414214 0.1414213 0
vn 1.154701 0.11547 0.5773503
vn 1.414214 0 0.7071068
vn 1.154701 -0.1154701 0.5773503
vn 0 0.1414213 0.7071069
vn -1.154701 0.11547 0.5773503
vn -1.414214 -0.1414214 0
vn 0 -0.1414214 0.7071068
vn -1.414214 0 0.7071068
vn -1.154701 -0.1154701 0.5773503
vn -1.154701 -0.1154701 -0.5773503
vn -1.414214 0 -0.7071068
vn -1.414214 0.1414213 0
vn 0 0.1414213 -0.7071069
vn -1.154701 0.11547 -0.5773503
vt 1.25 0.025
vt -0.25 0.025
vt 1.25 0.175
vt -0.25 0.175
vt 0.375 0.175
vt 0.375 0.025
vt -0.375 0.175
vt -0.375 0.025
vt -1.25 -0.375
vt -1.25 0.375
vt 0.25 -0.375
vt 0.25 0.375
vt 0.25 0.025
vt -1.25 0.025
vt 0.25 0.175
vt -1.25 0.175
vt -1.25 -0.5
vt -1.5 -0.375
vt -1.5 0.025
vt -1.5 0.175
vt -1.25 0.5
vt 0.25 0.5
vt -1.5 0.375
vt 1.5 0.025
vt 1.5 0.175
vt 0.5 0.375
vt 0.5 -0.375
vt 0.25 -0.5
vt -0.5 0.025
vt -0.5 0.175
vt 0.5 0.025
vt 0.5 0.175

usemtl customMaterial1
usemap customMaterial1
f 3/3/1 2/2/1 1/1/1
f 2/2/1 3/3/1 4/4/1
f 7/7/2 6/6/2 5/5/2
f 6/6/2 7/7/2 8/8/2
f 11/11/3 10/10/3 9/9/3
f 10/10/3 11/11/3 12/12/3
f 15/15/4 14/14/4 13/13/4
f 14/14/4 15/15/4 16/16/4
f 19/11/5 18/10/5 17/9/5
f 18/10/5 19/11/5 20/12/5
f 23/6/6 22/7/6 21/8/6
f 22/7/6 23/6/6 24/5/6
f 9/9/7 5/18/7 16/17/7
f 16/16/8 6/19/8 14/14/8
f 6/19/8 16/16/8 5/20/8
f 20/12/9 14/21/9 18/10/9
f 14/21/9 20/12/9 13/22/9
f 14/21/10 6/23/10 18/10/10
f 17/9/11 6/23/11 8/18/11
f 6/23/11 17/9/11 18/10/11
f 9/9/12 7/23/12 5/18/12
f 7/23/12 9/9/12 10/10/12
f 10/10/13 3/21/13 7/23/13
f 7/25/14 1/1/14 8/24/14
f 1/1/14 7/25/14 3/3/14
f 1/17/15 17/9/15 8/18/15
f 10/10/16 4/22/16 3/21/16
f 4/22/16 10/10/16 12/12/16
f 4/22/17 12/12/17 24/26/17
f 19/11/18 21/26/18 20/12/18
f 21/26/18 19/11/18 23/27/18
f 1/17/19 19/11/19 17/9/19
f 19/11/19 1/17/19 2/28/19
f 2/2/20 24/30/20 23/29/20
f 24/30/20 2/2/20 4/4/20
f 2/28/21 23/27/21 19/11/21
f 21/26/22 13/22/22 20/12/22
f 21/31/23 15/15/23 13/13/23
f 15/15/23 21/31/23 22/32/23
f 24/26/24 11/11/24 22/27/24
f 11/11/24 24/26/24 12/12/24
f 15/28/25 9/9/25 16/17/25
f 9/9/25 15/28/25 11/11/25
f 11/11/26 15/28/26 22/27/26

usemtl customMaterial1
usemap customMaterial1
f 3/3/1 2/2/1 1/1/1
f 2/2/1 3/3/1 4/4/1
f 7/7/2 6/6/2 5/5/2
f 6/6/2 7/7/2 8/8/2
f 11/11/3 10/10/3 9/9/3
f 10/10/3 11/11/3 12/12/3
f 15/15/4 14/14/4 13/13/4
f 14/14/4 15/15/4 16/16/4
f 19/11/5 18/10/5 17/9/5
f 18/10/5 19/11/5 20/12/5
f 23/6/6 22/7/6 21/8/6
f 22/7/6 23/6/6 24/5/6
f 9/9/7 5/18/7 16/17/7
f 16/16/8 6/19/8 14/14/8
f 6/19/8 16/16/8 5/20/8
f 20/12/9 14/21/9 18/10/9
f 14/21/9 20/12/9 13/22/9
f 14/21/10 6/23/10 18/10/10
f 17/9/11 6/23/11 8/18/11
f 6/23/11 17/9/11 18/10/11
f 9/9/12 7/23/12 5/18/12
f 7/23/12 9/9/12 10/10/12
f 10/10/13 3/21/13 7/23/13
f 7/25/14 1/1/14 8/24/14
f 1/1/14 7/25/14 3/3/14
f 1/17/15 17/9/15 8/18/15
f 10/10/16 4/22/16 3/21/16
f 4/22/16 10/10/16 12/12/16
f 4/22/17 12/12/17 24/26/17
f 19/11/18 21/26/18 20/12/18
f 21/26/18 19/11/18 23/27/18
f 1/17/19 19/11/19 17/9/19
f 19/11/19 1/17/19 2/28/19
f 2/2/20 24/30/20 23/29/20
f 24/30/20 2/2/20 4/4/20
f 2/28/21 23/27/21 19/11/21
f 21/26/22 13/22/22 20/12/22
f 21/31/23 15/15/23 13/13/23
f 15/15/23 21/31/23 22/32/23
f 24/26/24 11/11/24 22/27/24
f 11/11/24 24/26/24 12/12/24
f 15/28/25 9/9/25 16/17/25
f 9/9/25 15/28/25 11/11/25
f 11/11/26 15/28/26 22/27/26
