# Made using Asset Forge (www.assetforge.io) version 1.3 

mtllib Boneyard3D.mtl 

v 1.35 -9.745804E-16 1.2
v 1.35 -9.745804E-16 -1.2
v 1.2 -9.745804E-16 1.35
v 1.2 -9.745804E-16 -1.35
v 0.5462744 -2.030376E-15 0.5462744
v -1.2 -9.745804E-16 1.35
v -0.5462744 -2.030376E-15 0.5462744
v -0.5462744 -2.030376E-15 -0.5462744
v 0.5462744 -2.030376E-15 -0.5462744
v -1.2 -9.745804E-16 -1.35
v -1.35 -9.745804E-16 1.2
v -1.35 -9.745804E-16 -1.2
v 1.35 0.4875 -1.2
v 1.35 0.4875 1.2
v 1.2 0.4875 -1.35
v 1.2 0.4875 1.35
v 0.5462744 0.4875 -0.5462744
v -1.2 0.4875 -1.35
v -0.5462744 0.4875 -0.5462744
v -0.5462744 0.4875 0.5462744
v 0.5462744 0.4875 0.5462744
v -1.2 0.4875 1.35
v -1.35 0.4875 -1.2
v -1.35 0.4875 1.2
vn 0 -7.5 0
vn 0 7.5 0
vn 0 0 2.4
vn 1.697056 0 1.697056
vn 2.4 0 0
vn 1.697056 0 -1.697056
vn 0 0 -2.4
vn -1.697056 0 -1.697056
vn -2.4 0 0
vn -1.697056 0 1.697056
vt -1.35 -1.2
vt -1.35 1.2
vt -1.2 -1.35
vt -1.2 1.35
vt -0.5462744 -0.5462744
vt 1.2 -1.35
vt 0.5462743 -0.5462744
vt 0.5462743 0.5462743
vt -0.5462744 0.5462743
vt 1.2 1.35
vt 1.35 -1.2
vt 1.35 1.2
vt -0.5462744 -0.5462743
vt 0.5462743 -0.5462743
vt 0.5462743 0.5462744
vt -0.5462744 0.5462744
vt 1.2 -9.745804E-16
vt -1.2 -9.745804E-16
vt 1.2 0.4875
vt -1.2 0.4875
vt 1.35 0.4875
vt 1.35 -9.745804E-16
vt -1.35 -9.745804E-16
vt -1.35 0.4875
vt -0.5462743 -2.030376E-15
vt -0.5462743 0.4875
vt 0.5462744 -2.030376E-15
vt 0.5462744 0.4875
vt 0.5462743 0.4875
vt 0.5462743 -2.030376E-15
vt -0.5462744 0.4875
vt -0.5462744 -2.030376E-15

usemtl stone (Instance)
usemap stone (Instance)
f 3/3/1 2/2/1 1/1/1
f 2/2/1 3/3/1 4/4/1
f 4/4/1 3/3/1 5/5/1
f 5/5/1 3/3/1 6/6/1
f 5/5/1 6/6/1 7/7/1
f 7/7/1 6/6/1 8/8/1
f 9/9/1 4/4/1 5/5/1
f 4/4/1 9/9/1 10/10/1
f 10/10/1 9/9/1 8/8/1
f 10/10/1 8/8/1 6/6/1
f 10/10/1 6/6/1 11/11/1
f 10/10/1 11/11/1 12/12/1
f 15/3/2 14/2/2 13/1/2
f 14/2/2 15/3/2 16/4/2
f 16/4/2 15/3/2 17/13/2
f 17/13/2 15/3/2 18/6/2
f 17/13/2 18/6/2 19/14/2
f 19/14/2 18/6/2 20/15/2
f 21/16/2 16/4/2 17/13/2
f 16/4/2 21/16/2 22/10/2
f 22/10/2 21/16/2 20/15/2
f 22/10/2 20/15/2 18/6/2
f 22/10/2 18/6/2 23/11/2
f 22/10/2 23/11/2 24/12/2
f 16/19/3 6/18/3 3/17/3
f 6/18/3 16/19/3 22/20/3
f 16/19/4 1/22/4 14/21/4
f 1/22/4 16/19/4 3/17/4
f 14/20/5 2/17/5 13/19/5
f 2/17/5 14/20/5 1/18/5
f 15/20/6 2/23/6 4/18/6
f 2/23/6 15/20/6 13/24/6
f 18/19/7 4/18/7 10/17/7
f 4/18/7 18/19/7 15/20/7
f 12/22/8 18/19/8 10/17/8
f 18/19/8 12/22/8 23/21/8
f 11/17/9 23/20/9 12/18/9
f 23/20/9 11/17/9 24/19/9
f 22/20/10 11/23/10 6/18/10
f 11/23/10 22/20/10 24/24/10
f 5/27/9 17/26/9 9/25/9
f 17/26/9 5/27/9 21/28/9
f 17/28/3 8/25/3 9/27/3
f 8/25/3 17/28/3 19/26/3
f 20/31/5 8/30/5 19/29/5
f 8/30/5 20/31/5 7/32/5
f 20/29/7 5/32/7 7/30/7
f 5/32/7 20/29/7 21/31/7
v -1.2 0.5 1.35
v 1.2 0.5 1.35
v -1.35 0.5 1.2
v 1.35 0.5 1.2
v -0.5462745 0.5 0.5462744
v -1.35 0.5 -1.2
v -0.5462744 0.5 -0.5462745
v 0.5462745 0.5 -0.5462744
v 0.5462744 0.5 0.5462745
v 1.35 0.5 -1.2
v -1.2 0.5 -1.35
v 1.2 0.5 -1.35
v 1.2 0.9875 1.35
v -1.2 0.9875 1.35
v 1.35 0.9875 1.2
v -1.35 0.9875 1.2
v 0.5462744 0.9875 0.5462745
v 1.35 0.9875 -1.2
v 0.5462745 0.9875 -0.5462744
v -0.5462744 0.9875 -0.5462745
v -0.5462745 0.9875 0.5462744
v -1.35 0.9875 -1.2
v 1.2 0.9875 -1.35
v -1.2 0.9875 -1.35
vn -2.4 0 -2.384186E-07
vn -1.697057 0 1.697056
vn -2.384186E-07 0 2.4
vn 1.697056 0 1.697057
vn 2.4 0 2.384186E-07
vn 1.697057 0 -1.697056
vn 2.384186E-07 0 -2.4
vn -1.697056 0 -1.697057
vt 1.2 -1.35
vt -1.2 -1.35
vt 1.35 -1.2
vt -1.35 -1.2
vt 0.5462744 -0.5462744
vt 1.35 1.2
vt 0.5462743 0.5462744
vt -0.5462745 0.5462743
vt -0.5462744 -0.5462745
vt -1.35 1.2
vt 1.2 1.35
vt -1.2 1.35
vt -1.2 1.35
vt 1.2 1.35
vt -1.35 1.2
vt 1.35 1.2
vt -0.5462744 0.5462745
vt -1.35 -1.2
vt -0.5462745 -0.5462743
vt 0.5462743 -0.5462744
vt 0.5462744 0.5462744
vt 1.35 -1.2
vt -1.2 -1.35
vt 1.2 -1.35
vt 1.2 0.5
vt -1.2 0.5
vt 1.2 0.9875
vt -1.2 0.9875
vt -1.35 0.9875
vt -1.35 0.5
vt 1.35 0.5
vt 1.35 0.9875
vt 1.2 0.5
vt -1.2 0.5
vt 1.2 0.9875
vt -1.2 0.9875
vt -0.5462744 0.5
vt -0.5462744 0.9875
vt 0.5462744 0.5
vt 0.5462744 0.9875
vt 0.5462745 0.5
vt -0.5462743 0.5
vt 0.5462745 0.9875
vt -0.5462743 0.9875

usemtl stone (Instance) (Instance)
usemap stone (Instance) (Instance)
f 27/35/1 26/34/1 25/33/1
f 26/34/1 27/35/1 28/36/1
f 28/36/1 27/35/1 29/37/1
f 29/37/1 27/35/1 30/38/1
f 29/37/1 30/38/1 31/39/1
f 31/39/1 30/38/1 32/40/1
f 33/41/1 28/36/1 29/37/1
f 28/36/1 33/41/1 34/42/1
f 34/42/1 33/41/1 32/40/1
f 34/42/1 32/40/1 30/38/1
f 34/42/1 30/38/1 35/43/1
f 34/42/1 35/43/1 36/44/1
f 39/47/2 38/46/2 37/45/2
f 38/46/2 39/47/2 40/48/2
f 40/48/2 39/47/2 41/49/2
f 41/49/2 39/47/2 42/50/2
f 41/49/2 42/50/2 43/51/2
f 43/51/2 42/50/2 44/52/2
f 45/53/2 40/48/2 41/49/2
f 40/48/2 45/53/2 46/54/2
f 46/54/2 45/53/2 44/52/2
f 46/54/2 44/52/2 42/50/2
f 46/54/2 42/50/2 47/55/2
f 46/54/2 47/55/2 48/56/2
f 40/59/11 30/58/11 27/57/11
f 30/58/11 40/59/11 46/60/11
f 40/61/12 25/58/12 38/60/12
f 25/58/12 40/61/12 27/62/12
f 38/60/13 26/57/13 37/59/13
f 26/57/13 38/60/13 25/58/13
f 39/64/14 26/57/14 28/63/14
f 26/57/14 39/64/14 37/59/14
f 42/67/15 28/66/15 34/65/15
f 28/66/15 42/67/15 39/68/15
f 36/63/16 42/67/16 34/65/16
f 42/67/16 36/63/16 47/64/16
f 35/65/17 47/68/17 36/66/17
f 47/68/17 35/65/17 48/67/17
f 46/64/18 35/65/18 30/63/18
f 35/65/18 46/64/18 48/67/18
f 29/71/17 41/70/17 33/69/17
f 41/70/17 29/71/17 45/72/17
f 41/75/11 32/74/11 33/73/11
f 32/74/11 41/75/11 43/76/11
f 44/76/13 32/73/13 43/75/13
f 32/73/13 44/76/13 31/74/13
f 44/72/15 29/69/15 31/71/15
f 29/69/15 44/72/15 45/70/15
v -1.803123 1 0.1060658
v -0.1060663 1 1.803123
v -1.803123 1 -0.1060662
v 0.1060658 1 1.803123
v -0.7725487 1 -9.680929E-08
v -0.1060657 1 -1.803123
v 1.11807E-07 1 -0.7725487
v 0.7725487 1 1.416093E-07
v -6.700697E-08 1 0.7725487
v 1.803123 1 0.1060662
v 0.1060664 1 -1.803123
v 1.803123 1 -0.1060657
v -0.1060663 1.4875 1.803123
v -1.803123 1.4875 0.1060658
v 0.1060658 1.4875 1.803123
v -1.803123 1.4875 -0.1060662
v -6.700697E-08 1.4875 0.7725487
v 1.803123 1.4875 0.1060662
v 0.7725487 1.4875 1.416093E-07
v 1.11807E-07 1.4875 -0.7725487
v -0.7725487 1.4875 -9.680929E-08
v -0.1060657 1.4875 -1.803123
v 1.803123 1.4875 -0.1060657
v 0.1060664 1.4875 -1.803123
vt 1.803123 -0.1060658
vt 0.1060663 -1.803123
vt 1.803123 0.1060663
vt -0.1060658 -1.803123
vt 0.7725486 8.613495E-08
vt 0.1060658 1.803123
vt -1.309349E-07 0.7725486
vt -0.7725487 -1.309349E-07
vt 8.613495E-08 -0.7725487
vt -1.803123 -0.1060663
vt -0.1060663 1.803123
vt -1.803123 0.1060658
vt 0.1060663 1.803123
vt 1.803123 0.1060658
vt -0.1060658 1.803123
vt 1.803123 -0.1060663
vt 8.613495E-08 0.7725487
vt -1.803123 0.1060663
vt -0.7725487 1.309349E-07
vt -1.309349E-07 -0.7725486
vt 0.7725486 -8.613495E-08
vt 0.1060658 -1.803123
vt -1.803123 -0.1060658
vt -0.1060663 -1.803123
vt 1.803123 1
vt 0.1060658 1
vt 1.803123 1.4875
vt 0.1060658 1.4875
vt 0.1060658 1.4875
vt 0.1060658 1
vt -0.1060663 1.4875
vt -0.1060663 1
vt -0.1060663 1
vt -0.1060663 1.4875
vt -0.7725487 1
vt -0.7725487 1.4875
vt 8.613495E-08 1
vt 8.613495E-08 1.4875
vt 1.309349E-07 1.4875
vt 1.309349E-07 1
vt -0.7725486 1.4875
vt -0.7725486 1

usemtl stone (Instance) (Instance)
usemap stone (Instance) (Instance)
f 51/79/1 50/78/1 49/77/1
f 50/78/1 51/79/1 52/80/1
f 52/80/1 51/79/1 53/81/1
f 53/81/1 51/79/1 54/82/1
f 53/81/1 54/82/1 55/83/1
f 55/83/1 54/82/1 56/84/1
f 57/85/1 52/80/1 53/81/1
f 52/80/1 57/85/1 58/86/1
f 58/86/1 57/85/1 56/84/1
f 58/86/1 56/84/1 54/82/1
f 58/86/1 54/82/1 59/87/1
f 58/86/1 59/87/1 60/88/1
f 63/91/2 62/90/2 61/89/2
f 62/90/2 63/91/2 64/92/2
f 64/92/2 63/91/2 65/93/2
f 65/93/2 63/91/2 66/94/2
f 65/93/2 66/94/2 67/95/2
f 67/95/2 66/94/2 68/96/2
f 69/97/2 64/92/2 65/93/2
f 64/92/2 69/97/2 70/98/2
f 70/98/2 69/97/2 68/96/2
f 70/98/2 68/96/2 66/94/2
f 70/98/2 66/94/2 71/99/2
f 70/98/2 71/99/2 72/100/2
f 64/103/18 54/102/18 51/101/18
f 54/102/18 64/103/18 70/104/18
f 64/107/11 49/106/11 62/105/11
f 49/106/11 64/107/11 51/108/11
f 62/105/12 50/101/12 61/103/12
f 50/101/12 62/105/12 49/106/12
f 63/105/13 50/108/13 52/106/13
f 50/108/13 63/105/13 61/107/13
f 66/103/14 52/106/14 58/101/14
f 52/106/14 66/103/14 63/105/14
f 60/102/15 66/110/15 58/109/15
f 66/110/15 60/102/15 71/104/15
f 59/101/16 71/104/16 60/102/16
f 71/104/16 59/101/16 72/103/16
f 70/104/17 59/109/17 54/102/17
f 59/109/17 70/104/17 72/110/17
f 53/113/16 65/112/16 57/111/16
f 65/112/16 53/113/16 69/114/16
f 65/114/18 56/111/18 57/113/18
f 56/111/18 65/114/18 67/112/18
f 68/117/12 56/116/12 67/115/12
f 56/116/12 68/117/12 55/118/12
f 68/115/14 53/118/14 55/116/14
f 53/118/14 68/115/14 69/117/14
v -1.803123 1.5 0.1060658
v -0.1060663 1.5 1.803123
v -1.803123 1.5 -0.1060662
v 0.1060658 1.5 1.803123
v -0.7725487 1.5 -9.680929E-08
v -0.1060657 1.5 -1.803123
v 1.11807E-07 1.5 -0.7725487
v 0.7725487 1.5 1.416093E-07
v -6.700697E-08 1.5 0.7725487
v 1.803123 1.5 0.1060662
v 0.1060664 1.5 -1.803123
v 1.803123 1.5 -0.1060657
v -0.1060663 1.9875 1.803123
v -1.803123 1.9875 0.1060658
v 0.1060658 1.9875 1.803123
v -1.803123 1.9875 -0.1060662
v -6.700697E-08 1.9875 0.7725487
v 1.803123 1.9875 0.1060662
v 0.7725487 1.9875 1.416093E-07
v 1.11807E-07 1.9875 -0.7725487
v -0.7725487 1.9875 -9.680929E-08
v -0.1060657 1.9875 -1.803123
v 1.803123 1.9875 -0.1060657
v 0.1060664 1.9875 -1.803123
vt 1.803123 1.5
vt 0.1060658 1.5
vt 1.803123 1.9875
vt 0.1060658 1.9875
vt 0.1060658 1.9875
vt 0.1060658 1.5
vt -0.1060663 1.9875
vt -0.1060663 1.5
vt -0.1060663 1.5
vt -0.1060663 1.9875
vt -0.7725487 1.5
vt -0.7725487 1.9875
vt 8.613495E-08 1.5
vt 8.613495E-08 1.9875
vt 1.309349E-07 1.9875
vt 1.309349E-07 1.5
vt -0.7725486 1.9875
vt -0.7725486 1.5

usemtl stone (Instance) (Instance) (Instance)
usemap stone (Instance) (Instance) (Instance)
f 75/79/1 74/78/1 73/77/1
f 74/78/1 75/79/1 76/80/1
f 76/80/1 75/79/1 77/81/1
f 77/81/1 75/79/1 78/82/1
f 77/81/1 78/82/1 79/83/1
f 79/83/1 78/82/1 80/84/1
f 81/85/1 76/80/1 77/81/1
f 76/80/1 81/85/1 82/86/1
f 82/86/1 81/85/1 80/84/1
f 82/86/1 80/84/1 78/82/1
f 82/86/1 78/82/1 83/87/1
f 82/86/1 83/87/1 84/88/1
f 87/91/2 86/90/2 85/89/2
f 86/90/2 87/91/2 88/92/2
f 88/92/2 87/91/2 89/93/2
f 89/93/2 87/91/2 90/94/2
f 89/93/2 90/94/2 91/95/2
f 91/95/2 90/94/2 92/96/2
f 93/97/2 88/92/2 89/93/2
f 88/92/2 93/97/2 94/98/2
f 94/98/2 93/97/2 92/96/2
f 94/98/2 92/96/2 90/94/2
f 94/98/2 90/94/2 95/99/2
f 94/98/2 95/99/2 96/100/2
f 88/121/18 78/120/18 75/119/18
f 78/120/18 88/121/18 94/122/18
f 88/125/11 73/124/11 86/123/11
f 73/124/11 88/125/11 75/126/11
f 86/123/12 74/119/12 85/121/12
f 74/119/12 86/123/12 73/124/12
f 87/123/13 74/126/13 76/124/13
f 74/126/13 87/123/13 85/125/13
f 90/121/14 76/124/14 82/119/14
f 76/124/14 90/121/14 87/123/14
f 84/120/15 90/128/15 82/127/15
f 90/128/15 84/120/15 95/122/15
f 83/119/16 95/122/16 84/120/16
f 95/122/16 83/119/16 96/121/16
f 94/122/17 83/127/17 78/120/17
f 83/127/17 94/122/17 96/128/17
f 77/131/16 89/130/16 81/129/16
f 89/130/16 77/131/16 93/132/16
f 89/132/18 80/129/18 81/131/18
f 80/129/18 89/132/18 91/130/18
f 92/135/12 80/134/12 91/133/12
f 80/134/12 92/135/12 79/136/12
f 92/133/14 77/136/14 79/134/14
f 77/136/14 92/133/14 93/135/14
v 1.35 2 1.2
v 1.35 2 -1.2
v 1.2 2 1.35
v 1.2 2 -1.35
v 0.5462744 2 0.5462744
v -1.2 2 1.35
v -0.5462744 2 0.5462744
v -0.5462744 2 -0.5462744
v 0.5462744 2 -0.5462744
v -1.2 2 -1.35
v -1.35 2 1.2
v -1.35 2 -1.2
v 1.35 2.4875 -1.2
v 1.35 2.4875 1.2
v 1.2 2.4875 -1.35
v 1.2 2.4875 1.35
v 0.5462744 2.4875 -0.5462744
v -1.2 2.4875 -1.35
v -0.5462744 2.4875 -0.5462744
v -0.5462744 2.4875 0.5462744
v 0.5462744 2.4875 0.5462744
v -1.2 2.4875 1.35
v -1.35 2.4875 -1.2
v -1.35 2.4875 1.2
vt 1.2 2
vt -1.2 2
vt 1.2 2.4875
vt -1.2 2.4875
vt 1.35 2.4875
vt 1.35 2
vt -1.35 2
vt -1.35 2.4875
vt -0.5462743 2
vt -0.5462743 2.4875
vt 0.5462744 2
vt 0.5462744 2.4875
vt 0.5462743 2.4875
vt 0.5462743 2
vt -0.5462744 2.4875
vt -0.5462744 2

usemtl stone (Instance) (Instance)
usemap stone (Instance) (Instance)
f 99/3/1 98/2/1 97/1/1
f 98/2/1 99/3/1 100/4/1
f 100/4/1 99/3/1 101/5/1
f 101/5/1 99/3/1 102/6/1
f 101/5/1 102/6/1 103/7/1
f 103/7/1 102/6/1 104/8/1
f 105/9/1 100/4/1 101/5/1
f 100/4/1 105/9/1 106/10/1
f 106/10/1 105/9/1 104/8/1
f 106/10/1 104/8/1 102/6/1
f 106/10/1 102/6/1 107/11/1
f 106/10/1 107/11/1 108/12/1
f 111/3/2 110/2/2 109/1/2
f 110/2/2 111/3/2 112/4/2
f 112/4/2 111/3/2 113/13/2
f 113/13/2 111/3/2 114/6/2
f 113/13/2 114/6/2 115/14/2
f 115/14/2 114/6/2 116/15/2
f 117/16/2 112/4/2 113/13/2
f 112/4/2 117/16/2 118/10/2
f 118/10/2 117/16/2 116/15/2
f 118/10/2 116/15/2 114/6/2
f 118/10/2 114/6/2 119/11/2
f 118/10/2 119/11/2 120/12/2
f 112/139/3 102/138/3 99/137/3
f 102/138/3 112/139/3 118/140/3
f 112/139/4 97/142/4 110/141/4
f 97/142/4 112/139/4 99/137/4
f 110/140/5 98/137/5 109/139/5
f 98/137/5 110/140/5 97/138/5
f 111/140/6 98/143/6 100/138/6
f 98/143/6 111/140/6 109/144/6
f 114/139/7 100/138/7 106/137/7
f 100/138/7 114/139/7 111/140/7
f 108/142/8 114/139/8 106/137/8
f 114/139/8 108/142/8 119/141/8
f 107/137/9 119/140/9 108/138/9
f 119/140/9 107/137/9 120/139/9
f 118/140/10 107/143/10 102/138/10
f 107/143/10 118/140/10 120/144/10
f 101/147/9 113/146/9 105/145/9
f 113/146/9 101/147/9 117/148/9
f 113/148/3 104/145/3 105/147/3
f 104/145/3 113/148/3 115/146/3
f 116/151/5 104/150/5 115/149/5
f 104/150/5 116/151/5 103/152/5
f 116/149/7 101/152/7 103/150/7
f 101/152/7 116/149/7 117/151/7
v -1.803123 2.5 0.1060658
v -0.1060663 2.5 1.803123
v -1.803123 2.5 -0.1060662
v 0.1060658 2.5 1.803123
v -0.7725487 2.5 -9.680929E-08
v -0.1060657 2.5 -1.803123
v 1.11807E-07 2.5 -0.7725487
v 0.7725487 2.5 1.416093E-07
v -6.700697E-08 2.5 0.7725487
v 1.803123 2.5 0.1060662
v 0.1060664 2.5 -1.803123
v 1.803123 2.5 -0.1060657
v -0.1060663 2.9875 1.803123
v -1.803123 2.9875 0.1060658
v 0.1060658 2.9875 1.803123
v -1.803123 2.9875 -0.1060662
v -6.700697E-08 2.9875 0.7725487
v 1.803123 2.9875 0.1060662
v 0.7725487 2.9875 1.416093E-07
v 1.11807E-07 2.9875 -0.7725487
v -0.7725487 2.9875 -9.680929E-08
v -0.1060657 2.9875 -1.803123
v 1.803123 2.9875 -0.1060657
v 0.1060664 2.9875 -1.803123
vt 1.803123 2.5
vt 0.1060658 2.5
vt 1.803123 2.9875
vt 0.1060658 2.9875
vt 0.1060658 2.9875
vt 0.1060658 2.5
vt -0.1060663 2.9875
vt -0.1060663 2.5
vt -0.1060663 2.5
vt -0.1060663 2.9875
vt -0.7725487 2.5
vt -0.7725487 2.9875
vt 8.613495E-08 2.5
vt 8.613495E-08 2.9875
vt 1.309349E-07 2.9875
vt 1.309349E-07 2.5
vt -0.7725486 2.9875
vt -0.7725486 2.5

usemtl stone (Instance) (Instance) (Instance)
usemap stone (Instance) (Instance) (Instance)
f 123/79/1 122/78/1 121/77/1
f 122/78/1 123/79/1 124/80/1
f 124/80/1 123/79/1 125/81/1
f 125/81/1 123/79/1 126/82/1
f 125/81/1 126/82/1 127/83/1
f 127/83/1 126/82/1 128/84/1
f 129/85/1 124/80/1 125/81/1
f 124/80/1 129/85/1 130/86/1
f 130/86/1 129/85/1 128/84/1
f 130/86/1 128/84/1 126/82/1
f 130/86/1 126/82/1 131/87/1
f 130/86/1 131/87/1 132/88/1
f 135/91/2 134/90/2 133/89/2
f 134/90/2 135/91/2 136/92/2
f 136/92/2 135/91/2 137/93/2
f 137/93/2 135/91/2 138/94/2
f 137/93/2 138/94/2 139/95/2
f 139/95/2 138/94/2 140/96/2
f 141/97/2 136/92/2 137/93/2
f 136/92/2 141/97/2 142/98/2
f 142/98/2 141/97/2 140/96/2
f 142/98/2 140/96/2 138/94/2
f 142/98/2 138/94/2 143/99/2
f 142/98/2 143/99/2 144/100/2
f 136/155/18 126/154/18 123/153/18
f 126/154/18 136/155/18 142/156/18
f 136/159/11 121/158/11 134/157/11
f 121/158/11 136/159/11 123/160/11
f 134/157/12 122/153/12 133/155/12
f 122/153/12 134/157/12 121/158/12
f 135/157/13 122/160/13 124/158/13
f 122/160/13 135/157/13 133/159/13
f 138/155/14 124/158/14 130/153/14
f 124/158/14 138/155/14 135/157/14
f 132/154/15 138/162/15 130/161/15
f 138/162/15 132/154/15 143/156/15
f 131/153/16 143/156/16 132/154/16
f 143/156/16 131/153/16 144/155/16
f 142/156/17 131/161/17 126/154/17
f 131/161/17 142/156/17 144/162/17
f 125/165/16 137/164/16 129/163/16
f 137/164/16 125/165/16 141/166/16
f 137/166/18 128/163/18 129/165/18
f 128/163/18 137/166/18 139/164/18
f 140/169/12 128/168/12 139/167/12
f 128/168/12 140/169/12 127/170/12
f 140/167/14 125/170/14 127/168/14
f 125/170/14 140/167/14 141/169/14
v -1.803123 3 0.1060658
v -0.1060663 3 1.803123
v -1.803123 3 -0.1060662
v 0.1060658 3 1.803123
v -0.7725487 3 -9.680929E-08
v -0.1060657 3 -1.803123
v 1.11807E-07 3 -0.7725487
v 0.7725487 3 1.416093E-07
v -6.700697E-08 3 0.7725487
v 1.803123 3 0.1060662
v 0.1060664 3 -1.803123
v 1.803123 3 -0.1060657
v -0.1060663 3.4875 1.803123
v -1.803123 3.4875 0.1060658
v 0.1060658 3.4875 1.803123
v -1.803123 3.4875 -0.1060662
v -6.700697E-08 3.4875 0.7725487
v 1.803123 3.4875 0.1060662
v 0.7725487 3.4875 1.416093E-07
v 1.11807E-07 3.4875 -0.7725487
v -0.7725487 3.4875 -9.680929E-08
v -0.1060657 3.4875 -1.803123
v 1.803123 3.4875 -0.1060657
v 0.1060664 3.4875 -1.803123
vt 1.803123 3
vt 0.1060658 3
vt 1.803123 3.4875
vt 0.1060658 3.4875
vt 0.1060658 3.4875
vt 0.1060658 3
vt -0.1060663 3.4875
vt -0.1060663 3
vt -0.1060663 3
vt -0.1060663 3.4875
vt -0.7725487 3
vt -0.7725487 3.4875
vt 8.613495E-08 3
vt 8.613495E-08 3.4875
vt 1.309349E-07 3.4875
vt 1.309349E-07 3
vt -0.7725486 3.4875
vt -0.7725486 3

usemtl stone (Instance) (Instance) (Instance) (Instance)
usemap stone (Instance) (Instance) (Instance) (Instance)
f 147/79/1 146/78/1 145/77/1
f 146/78/1 147/79/1 148/80/1
f 148/80/1 147/79/1 149/81/1
f 149/81/1 147/79/1 150/82/1
f 149/81/1 150/82/1 151/83/1
f 151/83/1 150/82/1 152/84/1
f 153/85/1 148/80/1 149/81/1
f 148/80/1 153/85/1 154/86/1
f 154/86/1 153/85/1 152/84/1
f 154/86/1 152/84/1 150/82/1
f 154/86/1 150/82/1 155/87/1
f 154/86/1 155/87/1 156/88/1
f 159/91/2 158/90/2 157/89/2
f 158/90/2 159/91/2 160/92/2
f 160/92/2 159/91/2 161/93/2
f 161/93/2 159/91/2 162/94/2
f 161/93/2 162/94/2 163/95/2
f 163/95/2 162/94/2 164/96/2
f 165/97/2 160/92/2 161/93/2
f 160/92/2 165/97/2 166/98/2
f 166/98/2 165/97/2 164/96/2
f 166/98/2 164/96/2 162/94/2
f 166/98/2 162/94/2 167/99/2
f 166/98/2 167/99/2 168/100/2
f 160/173/18 150/172/18 147/171/18
f 150/172/18 160/173/18 166/174/18
f 160/177/11 145/176/11 158/175/11
f 145/176/11 160/177/11 147/178/11
f 158/175/12 146/171/12 157/173/12
f 146/171/12 158/175/12 145/176/12
f 159/175/13 146/178/13 148/176/13
f 146/178/13 159/175/13 157/177/13
f 162/173/14 148/176/14 154/171/14
f 148/176/14 162/173/14 159/175/14
f 156/172/15 162/180/15 154/179/15
f 162/180/15 156/172/15 167/174/15
f 155/171/16 167/174/16 156/172/16
f 167/174/16 155/171/16 168/173/16
f 166/174/17 155/179/17 150/172/17
f 155/179/17 166/174/17 168/180/17
f 149/183/16 161/182/16 153/181/16
f 161/182/16 149/183/16 165/184/16
f 161/184/18 152/181/18 153/183/18
f 152/181/18 161/184/18 163/182/18
f 164/187/12 152/186/12 163/185/12
f 152/186/12 164/187/12 151/188/12
f 164/185/14 149/188/14 151/186/14
f 149/188/14 164/185/14 165/187/14
