# Made using Asset Forge (www.assetforge.io) version 1.3 

mtllib BoneYardHalf.mtl 

v 3.7 0 1.7
v 4.2 0 1.7
v 3.7 0 1.2
v 4.2 0 1.2
v 3.7 0.2 1.45
v 3.95 0.2 1.2
v 3.95 0.2 1.45
vn 0 -0.2 0
vn -0.5000001 0 -5.960464E-08
vn 5.960464E-08 0 -0.5000001
vn -5.960464E-08 0.08944272 0.4472136
vn 0.4472136 0.08944272 5.960464E-08
vn -0.4472136 0.08944272 -5.960464E-08
vn 5.960464E-08 0.08944272 -0.4472136
vt -3.7 -1.7
vt -4.2 -1.7
vt -3.7 -1.2
vt -4.2 -1.2
vt 1.7 0
vt 1.2 0
vt 1.45 0.2
vt -4.2 0
vt -3.95 0.2
vt -3.7 0
vt -4.2 1.7
vt -3.7 1.7
vt -3.95 1.45
vt -3.7 1.45
vt -4.2 1.2
vt -3.95 1.2
vt -3.7 1.2

usemtl customMaterial1
usemap customMaterial1
f 3/3/1 2/2/1 1/1/1
f 2/2/1 3/3/1 4/4/1
f 5/7/2 3/6/2 1/5/2
f 3/10/3 6/9/3 4/8/3
f 7/13/4 1/12/4 2/11/4
f 1/12/4 7/13/4 5/14/4
f 6/16/5 2/11/5 4/15/5
f 2/11/5 6/16/5 7/13/5
f 6/16/6 3/17/6 7/13/6
f 5/14/7 7/13/7 3/17/7
v -5.2 0 1.2
v -5.2 0 1.7
v -4.7 0 1.2
v -4.7 0 1.7
v -4.95 0.2 1.2
v -4.7 0.2 1.45
v -4.95 0.2 1.45
vn 4.371139E-08 0 -0.5
vn 0.5 0 4.371139E-08
vn -0.4472136 0.08944272 -3.909665E-08
vn -3.909665E-08 0.08944272 0.4472136
vn 3.909665E-08 0.08944272 -0.4472136
vn 0.4472136 0.08944272 3.909665E-08
vt 5.2 -1.2
vt 5.2 -1.7
vt 4.7 -1.2
vt 4.7 -1.7
vt 5.2 0
vt 4.7 0
vt 4.95 0.2
vt -1.7 0
vt -1.45 0.2
vt -1.2 0
vt 5.2 1.7
vt 5.2 1.2
vt 4.95 1.45
vt 4.95 1.2
vt 4.7 1.7
vt 4.7 1.45
vt 4.7 1.2

usemtl customMaterial1
usemap customMaterial1
f 10/20/1 9/19/1 8/18/1
f 9/19/1 10/20/1 11/21/1
f 12/24/8 10/23/8 8/22/8
f 10/27/9 13/26/9 11/25/9
f 14/30/10 8/29/10 9/28/10
f 8/29/10 14/30/10 12/31/10
f 13/33/11 9/28/11 11/32/11
f 9/28/11 13/33/11 14/30/11
f 13/33/12 10/34/12 14/30/12
f 12/31/13 14/30/13 10/34/13
v -4.7 0 -2.7
v -5.2 0 -2.7
v -4.7 0 -2.2
v -5.2 0 -2.2
v -4.7 0.2 -2.45
v -4.95 0.2 -2.2
v -4.95 0.2 -2.45
vn 0.5000001 0 -5.960464E-08
vn 5.960464E-08 0 0.5000001
vn -5.960464E-08 0.08944272 -0.4472136
vn -0.4472136 0.08944272 5.960464E-08
vn 0.4472136 0.08944272 -5.960464E-08
vn 5.960464E-08 0.08944272 0.4472136
vt 4.7 2.7
vt 5.2 2.7
vt 4.7 2.2
vt 5.2 2.2
vt 2.7 0
vt 2.2 0
vt 2.45 0.2
vt -5.2 0
vt -4.95 0.2
vt -4.7 0
vt 5.2 -2.7
vt 4.7 -2.7
vt 4.95 -2.45
vt 4.7 -2.45
vt 5.2 -2.2
vt 4.95 -2.2
vt 4.7 -2.2

usemtl customMaterial1
usemap customMaterial1
f 17/37/1 16/36/1 15/35/1
f 16/36/1 17/37/1 18/38/1
f 19/41/14 17/40/14 15/39/14
f 17/44/15 20/43/15 18/42/15
f 21/47/16 15/46/16 16/45/16
f 15/46/16 21/47/16 19/48/16
f 20/50/17 16/45/17 18/49/17
f 16/45/17 20/50/17 21/47/17
f 20/50/18 17/51/18 21/47/18
f 19/48/19 21/47/19 17/51/19
v 4.2 0 -2.2
v 4.2 0 -2.7
v 3.7 0 -2.2
v 3.7 0 -2.7
v 3.95 0.2 -2.2
v 3.7 0.2 -2.45
v 3.95 0.2 -2.45
vn 0 0 0.5
vn -0.5 0 0
vn 0.4472136 0.08944272 0
vn 0 0.08944272 -0.4472136
vn 0 0.08944272 0.4472136
vn -0.4472136 0.08944272 0
vt -4.2 2.2
vt -4.2 2.7
vt -3.7 2.2
vt -3.7 2.7
vt 4.2 0
vt 3.7 0
vt 3.95 0.2
vt -2.7 0
vt -2.45 0.2
vt -2.2 0
vt -4.2 -2.7
vt -4.2 -2.2
vt -3.95 -2.45
vt -3.95 -2.2
vt -3.7 -2.7
vt -3.7 -2.45
vt -3.7 -2.2

usemtl customMaterial1
usemap customMaterial1
f 24/54/1 23/53/1 22/52/1
f 23/53/1 24/54/1 25/55/1
f 26/58/20 24/57/20 22/56/20
f 24/61/21 27/60/21 25/59/21
f 28/64/22 22/63/22 23/62/22
f 22/63/22 28/64/22 26/65/22
f 27/67/23 23/62/23 25/66/23
f 23/62/23 27/67/23 28/64/23
f 27/67/24 24/68/24 28/64/24
f 26/65/25 28/64/25 24/68/25
v -4.7 0 1.2
v -4.7 0 1.7
v 3.7 0 1.2
v 3.7 0 1.7
v -4.7 0.2 1.45
v 3.7 0.2 1.45
vn -8.4 0 -7.343513E-07
vn 8.4 0 7.343513E-07
vt 4.7 -1.2
vt 4.7 -1.7
vt -3.7 -1.2
vt -3.7 -1.7
vt 1.45 0.2
vt 1.7 0
vt 1.2 0
vt -1.7 0
vt -1.45 0.2
vt -1.2 0
vt 4.7 1.2
vt -3.7 1.2
vt 4.7 1.45
vt -3.7 1.45
vt -3.7 1.7
vt 4.7 1.7

usemtl customMaterial1
usemap customMaterial1
f 31/71/1 30/70/1 29/69/1
f 30/70/1 31/71/1 32/72/1
f 29/75/26 30/74/26 33/73/26
f 31/78/27 34/77/27 32/76/27
f 33/81/12 31/80/12 29/79/12
f 31/80/12 33/81/12 34/82/12
f 34/82/11 30/84/11 32/83/11
f 30/84/11 34/82/11 33/81/11
v 4.2 0 -2.2
v 3.7 0 -2.2
v 4.2 0 1.2
v 3.7 0 1.2
v 3.95 0.2 -2.2
v 3.95 0.2 1.2
vn -4.768372E-07 0 -3.400001
vn 4.768372E-07 0 3.400001
vt -4.2 2.2
vt -3.7 2.2
vt -4.2 -1.2
vt -3.7 -1.2
vt -3.95 0.2
vt -3.7 0
vt -4.2 0
vt 3.7 0
vt 3.95 0.2
vt 4.2 0
vt -4.2 -2.2
vt -4.2 1.2
vt -3.95 -2.2
vt -3.95 1.2
vt -3.7 1.2
vt -3.7 -2.2

usemtl customMaterial1
usemap customMaterial1
f 37/87/1 36/86/1 35/85/1
f 36/86/1 37/87/1 38/88/1
f 35/91/28 36/90/28 39/89/28
f 37/94/29 40/93/29 38/92/29
f 39/97/18 37/96/18 35/95/18
f 37/96/18 39/97/18 40/98/18
f 40/98/17 36/100/17 38/99/17
f 36/100/17 40/98/17 39/97/17
v -4.7 0 -2.2
v -5.2 0 -2.2
v -4.699999 0 1.2
v -5.2 0 1.2
v -4.95 0.2 -2.2
v -4.95 0.2 1.2
vt 4.7 2.2
vt 5.2 2.2
vt 4.7 -1.2
vt 5.2 -1.2
vt 4.7 -2.2
vt 4.7 1.2
vt 4.95 -2.2
vt 4.95 1.2
vt 5.2 1.2
vt 5.2 -2.2

usemtl customMaterial1
usemap customMaterial1
f 43/103/1 42/102/1 41/101/1
f 42/102/1 43/103/1 44/104/1
f 41/23/28 42/22/28 45/24/28
f 43/44/29 46/43/29 44/42/29
f 45/107/18 43/106/18 41/105/18
f 43/106/18 45/107/18 46/108/18
f 46/108/17 42/110/17 44/109/17
f 42/110/17 46/108/17 45/107/17
v -4.7 -0.1 -2.7
v -4.7 -0.1 1.2
v 3.7 -0.1 -2.7
v 3.7 -0.1 1.2
v 3.7 0 -2.7
v -4.7 0 -2.7
vn 0 -0.1 0
vn -3.409488E-07 0 3.9
vn 3.409488E-07 0 -3.9
vn 0 0.1 0
vt 4.7 2.700001
vt -3.7 2.7
vt -3.7 -1.2
vt -1.2 -0.1
vt 2.7 -0.1
vt 2.7 0
vt 3.7 -0.1
vt -4.7 -0.1
vt 3.7 0
vt 4.7 -0.1
vt -3.7 -0.1
vt 1.2 -0.1
vt -2.700001 0
vt -2.700001 -0.1
vt 4.7 -2.700001
vt -3.7 1.2
vt -3.7 -2.7

usemtl customMaterial1
usemap customMaterial1
f 49/112/30 48/69/30 47/111/30
f 48/69/30 49/112/30 50/113/30
f 49/115/27 31/78/27 50/114/27
f 31/78/27 49/115/27 51/116/27
f 31/119/31 48/118/31 50/117/31
f 48/118/31 31/119/31 29/44/31
f 52/23/32 49/121/32 47/120/32
f 49/121/32 52/23/32 51/10/32
f 52/123/26 48/122/26 29/75/26
f 48/122/26 52/123/26 47/124/26
f 31/126/33 52/125/33 29/79/33
f 52/125/33 31/126/33 51/127/33
